<?xml version="1.0" encoding="utf-8"?>
<!-- Generator: Adobe Illustrator 15.1.0, SVG Export Plug-In . SVG Version: 6.00 Build 0)  -->
<!DOCTYPE svg PUBLIC "-//W3C//DTD SVG 1.1//EN" "http://www.w3.org/Graphics/SVG/1.1/DTD/svg11.dtd">
<svg version="1.1" id="Layer_1" xmlns="http://www.w3.org/2000/svg" xmlns:xlink="http://www.w3.org/1999/xlink" x="0px" y="0px"
	 width="617px" height="59.996px" viewBox="38.776 4.762 617 59.996" enable-background="new 38.776 4.762 617 59.996"
	 xml:space="preserve">
<g>
	<path fill="#FFFFFF" d="M82.91,63.741v-0.847c1.298,0,2.257-0.239,2.879-0.72c0.621-0.479,0.621-1.425,0-2.836l-5.25-12.87H55.055
		l-4.741,11.854c-0.622,1.468-0.805,2.596-0.55,3.386c0.254,0.791,1.283,1.186,3.09,1.186v0.847H41v-0.847
		c0.677-0.056,1.255-0.253,1.735-0.593c0.479-0.338,0.903-0.732,1.271-1.185c0.367-0.452,0.677-0.959,0.931-1.524
		c0.254-0.563,0.494-1.129,0.719-1.693L67.331,5.83h4.657l22.521,54.271c0.621,1.524,1.833,2.455,3.641,2.794v0.847H82.91z
		 M67.924,14.719L56.748,42.32H79.1L67.924,14.719z"/>
	<path fill="#FFFFFF" d="M151.15,7.65c-0.622,0.254-1.059,0.634-1.312,1.143s-0.395,1.157-0.424,1.947
		c-0.029,0.791-0.042,1.723-0.042,2.794v50.631h-4.318l-33.951-48.599v41.233c0,1.072,0.013,1.989,0.042,2.751
		c0.027,0.763,0.169,1.397,0.423,1.905c0.254,0.509,0.69,0.876,1.312,1.101c0.621,0.227,1.495,0.339,2.625,0.339v0.847h-13.631
		v-0.847c1.186,0,2.088-0.112,2.709-0.339c0.621-0.225,1.071-0.578,1.354-1.059c0.282-0.479,0.437-1.101,0.466-1.861
		c0.028-0.763,0.042-1.707,0.042-2.837V10.825c-0.338-0.732-0.622-1.34-0.846-1.82c-0.227-0.479-0.48-0.847-0.762-1.1
		c-0.283-0.254-0.635-0.424-1.058-0.508c-0.423-0.085-1.059-0.127-1.905-0.127V6.422h11.176c5.193,7.846,10.47,15.551,15.833,23.114
		c5.362,7.564,10.639,15.27,15.833,23.114V13.534c0-1.128-0.015-2.087-0.043-2.879c-0.029-0.79-0.169-1.439-0.423-1.947
		c-0.253-0.507-0.706-0.875-1.354-1.101c-0.65-0.225-1.567-0.338-2.752-0.338V6.422h13.716v0.847
		C152.674,7.269,151.771,7.396,151.15,7.65z"/>
	<path fill="#FFFFFF" d="M158.854,62.895c0.846,0,1.551-0.027,2.116-0.085c0.564-0.055,0.987-0.225,1.271-0.508
		c0.282-0.282,0.479-0.705,0.593-1.27c0.112-0.564,0.169-1.326,0.169-2.285V11.418c0-0.959-0.056-1.721-0.169-2.287
		c-0.114-0.563-0.312-0.986-0.593-1.27c-0.283-0.282-0.707-0.451-1.271-0.507c-0.565-0.056-1.27-0.085-2.116-0.085V6.422h19.642
		c4.685,0,8.961,0.579,12.827,1.735c3.866,1.157,7.183,2.921,9.948,5.292c2.765,2.371,4.911,5.363,6.435,8.975
		c1.524,3.613,2.286,7.874,2.286,12.785c0,4.12-0.649,7.974-1.947,11.558c-1.299,3.584-3.556,6.759-6.773,9.523
		c-3.274,2.823-6.942,4.771-11.006,5.843c-4.064,1.073-8.213,1.608-12.446,1.608h-18.965V62.895z M170.199,57.646
		c0,0.508,0.197,0.903,0.593,1.186c0.394,0.282,0.874,0.494,1.439,0.635c0.564,0.142,1.128,0.227,1.693,0.254
		c0.563,0.029,0.987,0.042,1.271,0.042c4.119,0,7.874-0.466,11.26-1.396c3.387-0.932,6.265-2.398,8.636-4.403
		c2.371-2.002,4.204-4.572,5.503-7.704c1.297-3.133,1.947-6.9,1.947-11.303c0-4.176-0.622-7.803-1.862-10.88
		c-1.242-3.075-3.006-5.63-5.292-7.662c-2.287-2.032-5.053-3.542-8.298-4.53c-3.247-0.987-6.872-1.481-10.879-1.481
		c-1.016,0-2.061,0.084-3.133,0.253c-1.072,0.169-2.032,0.593-2.878,1.27V57.646L170.199,57.646z"/>
	<path fill="#FFFFFF" d="M253.256,63.741c-1.355-2.991-2.709-5.686-4.064-8.086c-1.354-2.398-2.823-4.642-4.402-6.73
		c-1.581-2.088-3.302-4.093-5.165-6.012c-1.862-1.918-3.979-3.922-6.35-6.011l-6.096,0.084v21.761c0,0.959,0.055,1.721,0.169,2.285
		c0.112,0.564,0.31,0.987,0.593,1.27c0.281,0.283,0.705,0.453,1.27,0.508c0.564,0.058,1.299,0.085,2.202,0.085v0.847h-15.409v-0.847
		c0.847,0,1.537-0.042,2.075-0.127c0.535-0.085,0.944-0.268,1.227-0.55c0.282-0.282,0.466-0.691,0.55-1.229
		c0.085-0.535,0.127-1.283,0.127-2.242V11.418c0-0.902-0.042-1.636-0.127-2.202c-0.084-0.563-0.269-0.987-0.55-1.27
		c-0.283-0.281-0.692-0.466-1.227-0.55c-0.538-0.085-1.228-0.127-2.075-0.127V6.422h20.235c2.483,0,4.868,0.269,7.154,0.805
		c2.287,0.537,4.304,1.397,6.054,2.582c1.748,1.186,3.145,2.738,4.191,4.657c1.044,1.92,1.565,4.291,1.565,7.112
		c0,2.146-0.394,4.022-1.185,5.63c-0.791,1.608-1.862,2.963-3.216,4.063c-1.355,1.101-2.909,1.99-4.658,2.667
		c-1.75,0.677-3.585,1.157-5.503,1.44c1.636,1.354,2.963,2.512,3.979,3.471c1.016,0.96,1.905,1.877,2.667,2.752
		c0.762,0.876,1.509,1.777,2.244,2.708c0.733,0.933,1.609,2.02,2.625,3.261c1.128,1.411,2.202,3.006,3.217,4.784
		c1.016,1.777,1.96,3.443,2.836,4.995c0.875,1.552,1.679,2.864,2.413,3.936c0.734,1.073,1.44,1.609,2.117,1.609v0.847H253.256z
		 M227.179,32.923h4.063c2.032,0,4.022-0.183,5.969-0.55c1.947-0.367,3.711-1.016,5.292-1.947c1.58-0.932,2.85-2.187,3.81-3.768
		c0.959-1.579,1.439-3.556,1.439-5.926c0-2.087-0.396-3.81-1.186-5.165c-0.791-1.354-1.849-2.413-3.175-3.174
		c-1.326-0.762-2.836-1.284-4.529-1.567c-1.693-0.281-3.416-0.423-5.165-0.423c-0.508,0-1.073,0-1.693,0
		c-0.565,0-1.157,0.029-1.778,0.084c-0.622,0.056-1.199,0.198-1.736,0.423c-0.537,0.226-0.974,0.537-1.312,0.931V32.923z"/>
	<path fill="#FFFFFF" d="M305.241,63.741h-38.608v-0.847c1.749,0,2.85-0.239,3.302-0.72c0.452-0.479,0.678-1.621,0.678-3.428V11.418
		c0-1.806-0.226-2.949-0.678-3.429c-0.452-0.479-1.553-0.72-3.302-0.72V6.422h37.761l0.085,8.721h-1.185
		c-0.283-2.145-0.947-3.457-1.991-3.937c-1.045-0.479-2.554-0.72-4.529-0.72h-17.103c-0.96,0-1.51,0.099-1.651,0.296
		c-0.141,0.198-0.212,0.749-0.212,1.651v19.389h17.188c0.901,0,1.693-0.042,2.371-0.127c0.678-0.084,1.229-0.267,1.651-0.55
		c0.423-0.281,0.748-0.705,0.974-1.27c0.225-0.563,0.394-1.325,0.508-2.286h1.101v12.785h-1.101
		c-0.114-1.017-0.283-1.806-0.508-2.371c-0.226-0.564-0.55-1.002-0.974-1.312c-0.422-0.31-0.96-0.508-1.608-0.593
		c-0.649-0.085-1.454-0.126-2.412-0.126H277.81v22.097c0,0.508,0.155,0.89,0.465,1.144c0.31,0.254,0.677,0.41,1.101,0.465
		c0.423,0.057,0.874,0.072,1.355,0.043c0.479-0.027,0.889-0.043,1.227-0.043h13.97c1.354,0,2.525-0.069,3.514-0.211
		c0.987-0.141,1.876-0.437,2.666-0.89c0.791-0.451,1.495-1.058,2.117-1.82c0.62-0.762,1.213-1.79,1.778-3.09h1.355L305.241,63.741z"
		/>
	<path fill="#FFFFFF" d="M384.317,8.116c-0.508,0.453-0.961,1.214-1.355,2.286c-3.104,8.975-6.082,17.936-8.932,26.881
		c-2.851,8.947-5.659,17.964-8.424,27.052h-3.725l-14.055-43.181l-13.885,43.181h-3.726l-17.018-52.664
		c-0.395-1.128-0.903-2.129-1.524-3.005c-0.621-0.874-1.608-1.34-2.963-1.397V6.422h14.055v0.847c-1.129,0-1.99,0.156-2.582,0.465
		c-0.593,0.312-0.665,1.116-0.212,2.414l13.546,42.079l11.769-36.661l-2.709-6.096c-0.452-0.958-0.974-1.566-1.565-1.82
		c-0.591-0.254-1.369-0.381-2.329-0.381V6.422h15.578v0.847c-0.506,0-1.014,0.029-1.524,0.085c-0.507,0.056-0.93,0.198-1.269,0.423
		s-0.579,0.522-0.719,0.889c-0.143,0.368-0.099,0.889,0.127,1.566l13.885,42.333l13.122-40.555c0.452-1.468,0.509-2.595,0.17-3.386
		c-0.339-0.791-1.355-1.241-3.049-1.355V6.422h11.77v0.847C385.642,7.383,384.827,7.664,384.317,8.116z"/>
	<path fill="#FFFFFF" d="M420.552,62.599c-0.284,0.254-0.424,0.605-0.424,1.058h-1.015l-0.423-12.361l0.17-0.253h0.76
		c1.017,2.427,2.384,4.373,4.106,5.841c1.721,1.47,3.542,2.527,5.461,3.176s3.865,0.918,5.843,0.804
		c1.974-0.111,3.767-0.592,5.376-1.438c1.61-0.848,2.905-2.019,3.895-3.515c0.987-1.495,1.481-3.259,1.481-5.291
		c0-2.427-0.663-4.458-1.989-6.097c-1.327-1.636-2.979-3.117-4.953-4.444c-1.976-1.326-4.134-2.596-6.477-3.81
		c-2.344-1.213-4.501-2.569-6.479-4.064c-1.976-1.495-3.626-3.246-4.952-5.25c-1.326-2.003-1.989-4.5-1.989-7.493
		c0-2.201,0.465-4.162,1.396-5.884c0.933-1.722,2.158-3.203,3.683-4.445c1.526-1.241,3.26-2.186,5.208-2.836
		c1.946-0.648,3.936-0.974,5.969-0.974c1.187,0,2.355,0.1,3.514,0.296c1.155,0.198,2.3,0.465,3.43,0.804
		c0.111,0.057,0.424,0.156,0.932,0.296c0.507,0.141,1.058,0.296,1.65,0.465c0.594,0.17,1.144,0.326,1.65,0.466
		c0.508,0.142,0.79,0.211,0.847,0.211c0.962-0.112,1.495-0.648,1.609-1.608h0.932c0.226,2.089,0.436,4.233,0.636,6.435
		c0.196,2.202,0.237,4.347,0.127,6.435h-0.932c-0.733-2.145-1.834-3.923-3.302-5.333s-3.091-2.483-4.868-3.217
		c-1.779-0.733-3.628-1.101-5.547-1.101c-1.861,0-3.568,0.339-5.122,1.016s-2.822,1.693-3.809,3.048
		c-0.989,1.355-1.483,3.021-1.483,4.996c0,1.524,0.408,2.865,1.229,4.021c0.818,1.157,1.789,2.216,2.92,3.175
		c1.467,1.185,3.02,2.286,4.655,3.302c1.637,1.016,3.303,1.977,4.995,2.878l-0.592-0.254c1.863,0.96,3.655,2.004,5.378,3.132
		c1.721,1.13,3.259,2.4,4.612,3.811c1.355,1.411,2.428,3.006,3.218,4.783c0.791,1.778,1.186,3.824,1.186,6.139
		c0,2.427-0.538,4.586-1.609,6.477c-1.073,1.892-2.47,3.486-4.19,4.783c-1.723,1.3-3.655,2.287-5.8,2.964
		c-2.145,0.678-4.317,1.017-6.519,1.017c-2.372,0-4.63-0.284-6.772-0.847c-2.146-0.563-4.348-1.156-6.604-1.778
		C421.172,62.189,420.833,62.344,420.552,62.599z"/>
	<path fill="#FFFFFF" d="M511.652,46.596c-1.185,3.586-2.921,6.731-5.207,9.441s-5.094,4.84-8.425,6.393
		c-3.33,1.551-7.14,2.328-11.429,2.328c-4.348,0-8.186-0.776-11.516-2.328c-3.331-1.553-6.137-3.669-8.423-6.351
		c-2.286-2.68-4.009-5.827-5.166-9.44c-1.157-3.612-1.734-7.45-1.734-11.515c0-5.022,0.761-9.397,2.285-13.123
		c1.525-3.726,3.556-6.843,6.097-9.355c2.539-2.511,5.419-4.389,8.635-5.63c3.218-1.241,6.49-1.849,9.822-1.82
		c3.329,0.029,6.604,0.664,9.821,1.905c3.217,1.243,6.097,3.105,8.636,5.588c2.54,2.484,4.573,5.603,6.096,9.355
		c1.524,3.754,2.286,8.115,2.286,13.081C513.43,39.188,512.837,43.012,511.652,46.596z M504.751,26.107
		c-0.706-3.076-1.82-5.855-3.343-8.339c-1.524-2.483-3.502-4.515-5.928-6.096c-2.427-1.579-5.392-2.37-8.89-2.37
		c-3.556,0-6.55,0.791-8.975,2.37c-2.427,1.581-4.403,3.613-5.927,6.096c-1.525,2.484-2.624,5.25-3.303,8.297
		c-0.677,3.048-1.017,6.068-1.017,9.059c0,2.992,0.34,6.027,1.017,9.102c0.679,3.077,1.777,5.842,3.303,8.298
		c1.523,2.455,3.5,4.459,5.927,6.012c2.425,1.553,5.419,2.327,8.975,2.327c3.498,0,6.477-0.774,8.933-2.327
		c2.455-1.553,4.444-3.569,5.969-6.055c1.524-2.482,2.625-5.249,3.302-8.297c0.679-3.048,1.015-6.067,1.015-9.06
		C505.809,32.19,505.457,29.185,504.751,26.107z"/>
	<path fill="#FFFFFF" d="M530.025,58.747c0,1.015,0.055,1.792,0.169,2.326c0.113,0.538,0.339,0.946,0.677,1.229
		c0.339,0.283,0.791,0.453,1.355,0.508c0.563,0.058,1.297,0.085,2.201,0.085v0.847h-15.578v-0.847c0.846,0,1.536-0.042,2.074-0.127
		c0.535-0.085,0.943-0.268,1.228-0.55c0.281-0.282,0.465-0.691,0.55-1.229c0.086-0.535,0.129-1.283,0.129-2.242V11.418
		c0-0.902-0.043-1.636-0.129-2.202c-0.085-0.563-0.269-0.987-0.55-1.27c-0.282-0.281-0.69-0.466-1.228-0.55
		c-0.538-0.085-1.229-0.127-2.074-0.127V6.422h19.134c2.541,0,5.009,0.296,7.408,0.889c2.398,0.593,4.531,1.524,6.393,2.794
		c1.86,1.27,3.346,2.921,4.446,4.953c1.099,2.032,1.649,4.487,1.649,7.366c0,3.048-0.578,5.63-1.737,7.747
		c-1.157,2.117-2.708,3.839-4.654,5.165c-1.948,1.326-4.178,2.272-6.688,2.837c-2.514,0.564-5.125,0.818-7.833,0.761l-6.941-0.168
		V58.747L530.025,58.747z M530.025,34.531l6.012,0.17c2.145,0.058,4.106-0.127,5.884-0.551c1.777-0.423,3.303-1.129,4.572-2.117
		c1.27-0.987,2.256-2.286,2.962-3.895c0.707-1.609,1.06-3.569,1.06-5.884c0-2.087-0.381-3.895-1.144-5.418
		c-0.762-1.524-1.791-2.752-3.09-3.683c-1.299-0.932-2.808-1.622-4.529-2.074c-1.722-0.452-3.545-0.677-5.462-0.677
		c-0.508,0-1.03-0.042-1.565-0.127c-0.538-0.084-1.087-0.14-1.652-0.169c-0.564-0.028-1.114-0.013-1.65,0.043
		c-0.537,0.056-1.002,0.226-1.396,0.507V34.531z"/>
	<path fill="#FFFFFF" d="M602.16,63.741h-38.607v-0.847c1.748,0,2.849-0.239,3.302-0.72c0.451-0.479,0.678-1.621,0.678-3.428V11.418
		c0-1.806-0.227-2.949-0.678-3.429c-0.453-0.479-1.554-0.72-3.302-0.72V6.422h37.762l0.084,8.721h-1.185
		c-0.285-2.145-0.947-3.457-1.992-3.937c-1.043-0.479-2.554-0.72-4.528-0.72H576.59c-0.96,0-1.511,0.099-1.65,0.296
		c-0.142,0.198-0.212,0.749-0.212,1.651v19.389h17.188c0.899,0,1.693-0.042,2.37-0.127c0.677-0.084,1.229-0.267,1.65-0.55
		c0.424-0.281,0.747-0.705,0.975-1.27c0.225-0.563,0.393-1.325,0.509-2.286h1.101v12.785h-1.101
		c-0.116-1.017-0.284-1.806-0.509-2.371c-0.228-0.564-0.551-1.002-0.975-1.312c-0.422-0.31-0.96-0.508-1.609-0.593
		s-1.453-0.126-2.411-0.126h-17.188v22.097c0,0.508,0.157,0.89,0.465,1.144c0.311,0.254,0.677,0.41,1.101,0.465
		c0.424,0.057,0.875,0.072,1.355,0.043c0.479-0.027,0.89-0.043,1.227-0.043h13.971c1.355,0,2.524-0.069,3.514-0.211
		c0.986-0.141,1.876-0.437,2.666-0.89c0.791-0.451,1.495-1.058,2.117-1.82c0.62-0.762,1.213-1.79,1.777-3.09h1.355L602.16,63.741z"
		/>
	<path fill="#FFFFFF" d="M644.069,63.741c-1.355-2.991-2.71-5.686-4.062-8.086c-1.356-2.398-2.823-4.642-4.403-6.73
		c-1.581-2.088-3.302-4.093-5.166-6.012c-1.861-1.918-3.979-3.922-6.349-6.011l-6.097,0.084v21.761c0,0.959,0.056,1.721,0.169,2.285
		c0.114,0.564,0.311,0.987,0.593,1.27c0.282,0.283,0.706,0.453,1.271,0.508c0.562,0.058,1.297,0.085,2.201,0.085v0.847h-15.412
		v-0.847c0.85,0,1.537-0.042,2.076-0.127c0.534-0.085,0.945-0.268,1.229-0.55c0.282-0.282,0.465-0.691,0.549-1.229
		c0.086-0.535,0.128-1.283,0.128-2.242V11.418c0-0.902-0.042-1.636-0.128-2.202c-0.084-0.563-0.267-0.987-0.549-1.27
		c-0.283-0.281-0.693-0.466-1.229-0.55c-0.537-0.085-1.227-0.127-2.076-0.127V6.422h20.235c2.483,0,4.869,0.269,7.155,0.805
		c2.286,0.537,4.303,1.397,6.053,2.582c1.748,1.186,3.146,2.738,4.191,4.657c1.044,1.92,1.565,4.291,1.565,7.112
		c0,2.146-0.395,4.022-1.185,5.63c-0.791,1.608-1.862,2.963-3.217,4.063c-1.355,1.101-2.909,1.99-4.657,2.667
		c-1.75,0.677-3.585,1.157-5.504,1.44c1.637,1.354,2.965,2.512,3.979,3.471c1.016,0.96,1.905,1.877,2.668,2.752
		c0.762,0.876,1.509,1.777,2.243,2.708c0.733,0.933,1.608,2.02,2.625,3.261c1.128,1.411,2.201,3.006,3.218,4.784
		c1.016,1.777,1.96,3.443,2.835,4.995s1.68,2.864,2.413,3.936c0.734,1.073,1.44,1.609,2.117,1.609v0.847H644.069z M617.991,32.923
		h4.064c2.032,0,4.021-0.183,5.97-0.55c1.946-0.367,3.71-1.016,5.292-1.947c1.579-0.932,2.849-2.187,3.809-3.768
		c0.959-1.579,1.439-3.556,1.439-5.926c0-2.087-0.396-3.81-1.185-5.165c-0.791-1.354-1.851-2.413-3.175-3.174
		c-1.328-0.762-2.837-1.284-4.53-1.567c-1.695-0.281-3.416-0.423-5.164-0.423c-0.509,0-1.073,0-1.693,0
		c-0.565,0-1.157,0.029-1.777,0.084c-0.622,0.056-1.201,0.198-1.738,0.423c-0.536,0.226-0.974,0.537-1.312,0.931V32.923
		L617.991,32.923z"/>
</g>
<circle fill="#FFFFFF" cx="486.86" cy="35.097" r="3.822"/>
</svg>
